<mxfile host="app.diagrams.net" modified="2024-05-07T07:38:37.739Z" agent="Mozilla/5.0 (Windows NT 10.0; Win64; x64) AppleWebKit/537.36 (KHTML, like Gecko) Chrome/124.0.0.0 Safari/537.36 Edg/124.0.0.0" etag="x8chXJH3ROMpPmZGlZkw" version="24.3.1" type="github">
  <diagram name="Page-1" id="74e2e168-ea6b-b213-b513-2b3c1d86103e">
    <mxGraphModel dx="1459" dy="1689" grid="1" gridSize="10" guides="1" tooltips="1" connect="1" arrows="1" fold="1" page="1" pageScale="1" pageWidth="1100" pageHeight="850" background="none" math="0" shadow="0">
      <root>
        <mxCell id="0" />
        <mxCell id="1" parent="0" />
        <mxCell id="77e6c97f196da883-1" value="Pool" style="swimlane;html=1;childLayout=stackLayout;startSize=20;rounded=0;shadow=0;labelBackgroundColor=none;strokeWidth=1;fontFamily=Verdana;fontSize=8;align=center;" parent="1" vertex="1">
          <mxGeometry x="100" y="-820" width="1130" height="890" as="geometry" />
        </mxCell>
        <mxCell id="77e6c97f196da883-2" value="User" style="swimlane;html=1;startSize=20;" parent="77e6c97f196da883-1" vertex="1">
          <mxGeometry y="20" width="160" height="870" as="geometry" />
        </mxCell>
        <mxCell id="77e6c97f196da883-8" value="&lt;h2&gt;send few word&lt;/h2&gt;" style="rounded=1;whiteSpace=wrap;html=1;shadow=0;labelBackgroundColor=none;strokeWidth=1;fontFamily=Verdana;fontSize=8;align=center;" parent="77e6c97f196da883-2" vertex="1">
          <mxGeometry x="20" y="37.5" width="100" height="35" as="geometry" />
        </mxCell>
        <mxCell id="MxT1PfqKiL4b56vrJKvQ-12" value="user acces result" style="rounded=1;whiteSpace=wrap;html=1;" vertex="1" parent="77e6c97f196da883-2">
          <mxGeometry x="10" y="87.5" width="120" height="27" as="geometry" />
        </mxCell>
        <mxCell id="MxT1PfqKiL4b56vrJKvQ-30" style="edgeStyle=orthogonalEdgeStyle;rounded=0;orthogonalLoop=1;jettySize=auto;html=1;" edge="1" parent="77e6c97f196da883-2" source="MxT1PfqKiL4b56vrJKvQ-29">
          <mxGeometry relative="1" as="geometry">
            <mxPoint x="190" y="145" as="targetPoint" />
          </mxGeometry>
        </mxCell>
        <mxCell id="MxT1PfqKiL4b56vrJKvQ-29" value="user get access" style="rounded=1;whiteSpace=wrap;html=1;" vertex="1" parent="77e6c97f196da883-2">
          <mxGeometry x="20" y="160" width="80" height="30" as="geometry" />
        </mxCell>
        <mxCell id="77e6c97f196da883-4" value="server" style="swimlane;html=1;startSize=20;" parent="77e6c97f196da883-1" vertex="1">
          <mxGeometry x="160" y="20" width="650" height="870" as="geometry" />
        </mxCell>
        <mxCell id="MxT1PfqKiL4b56vrJKvQ-5" value="randomnized" style="rounded=1;whiteSpace=wrap;html=1;" vertex="1" parent="77e6c97f196da883-4">
          <mxGeometry x="20" y="82.5" width="80" height="25" as="geometry" />
        </mxCell>
        <mxCell id="MxT1PfqKiL4b56vrJKvQ-8" value="" style="endArrow=classic;html=1;rounded=0;exitX=0.5;exitY=0;exitDx=0;exitDy=0;" edge="1" parent="77e6c97f196da883-4" target="MxT1PfqKiL4b56vrJKvQ-7">
          <mxGeometry width="50" height="50" relative="1" as="geometry">
            <mxPoint x="55" y="82.5" as="sourcePoint" />
            <mxPoint x="725" y="40" as="targetPoint" />
            <Array as="points">
              <mxPoint x="55" y="30" />
              <mxPoint x="720" y="30" />
            </Array>
          </mxGeometry>
        </mxCell>
        <mxCell id="MxT1PfqKiL4b56vrJKvQ-19" style="edgeStyle=orthogonalEdgeStyle;rounded=0;orthogonalLoop=1;jettySize=auto;html=1;entryX=1;entryY=0.5;entryDx=0;entryDy=0;" edge="1" parent="77e6c97f196da883-4" source="MxT1PfqKiL4b56vrJKvQ-13" target="MxT1PfqKiL4b56vrJKvQ-16">
          <mxGeometry relative="1" as="geometry" />
        </mxCell>
        <mxCell id="MxT1PfqKiL4b56vrJKvQ-20" style="edgeStyle=orthogonalEdgeStyle;rounded=0;orthogonalLoop=1;jettySize=auto;html=1;" edge="1" parent="77e6c97f196da883-4" source="MxT1PfqKiL4b56vrJKvQ-13">
          <mxGeometry relative="1" as="geometry">
            <mxPoint x="460" y="81.5" as="targetPoint" />
          </mxGeometry>
        </mxCell>
        <mxCell id="MxT1PfqKiL4b56vrJKvQ-13" value="check date if more than 12h" style="rhombus;whiteSpace=wrap;html=1;" vertex="1" parent="77e6c97f196da883-4">
          <mxGeometry x="350" y="55.5" width="65" height="52" as="geometry" />
        </mxCell>
        <mxCell id="MxT1PfqKiL4b56vrJKvQ-15" value="no" style="text;html=1;align=center;verticalAlign=middle;whiteSpace=wrap;rounded=0;" vertex="1" parent="77e6c97f196da883-4">
          <mxGeometry x="305" y="50" width="40" height="24" as="geometry" />
        </mxCell>
        <mxCell id="MxT1PfqKiL4b56vrJKvQ-16" value="user transfer" style="rounded=1;whiteSpace=wrap;html=1;" vertex="1" parent="77e6c97f196da883-4">
          <mxGeometry x="130" y="82.5" width="110" height="37" as="geometry" />
        </mxCell>
        <mxCell id="MxT1PfqKiL4b56vrJKvQ-23" style="edgeStyle=orthogonalEdgeStyle;rounded=0;orthogonalLoop=1;jettySize=auto;html=1;entryX=1;entryY=0.5;entryDx=0;entryDy=0;" edge="1" parent="77e6c97f196da883-4" source="MxT1PfqKiL4b56vrJKvQ-21" target="MxT1PfqKiL4b56vrJKvQ-16">
          <mxGeometry relative="1" as="geometry">
            <Array as="points">
              <mxPoint x="515" y="120" />
              <mxPoint x="290" y="120" />
              <mxPoint x="290" y="101" />
            </Array>
          </mxGeometry>
        </mxCell>
        <mxCell id="MxT1PfqKiL4b56vrJKvQ-21" value="delete token" style="rounded=1;whiteSpace=wrap;html=1;" vertex="1" parent="77e6c97f196da883-4">
          <mxGeometry x="460" y="64.5" width="110" height="34" as="geometry" />
        </mxCell>
        <mxCell id="MxT1PfqKiL4b56vrJKvQ-28" value="yes" style="text;html=1;align=center;verticalAlign=middle;whiteSpace=wrap;rounded=0;" vertex="1" parent="77e6c97f196da883-4">
          <mxGeometry x="415" y="50" width="40" height="24" as="geometry" />
        </mxCell>
        <mxCell id="MxT1PfqKiL4b56vrJKvQ-33" style="edgeStyle=orthogonalEdgeStyle;rounded=0;orthogonalLoop=1;jettySize=auto;html=1;entryX=0.5;entryY=0;entryDx=0;entryDy=0;" edge="1" parent="77e6c97f196da883-4" source="MxT1PfqKiL4b56vrJKvQ-31" target="MxT1PfqKiL4b56vrJKvQ-32">
          <mxGeometry relative="1" as="geometry" />
        </mxCell>
        <mxCell id="MxT1PfqKiL4b56vrJKvQ-31" value="check token" style="rounded=1;whiteSpace=wrap;html=1;" vertex="1" parent="77e6c97f196da883-4">
          <mxGeometry x="30" y="150" width="110" height="30" as="geometry" />
        </mxCell>
        <mxCell id="MxT1PfqKiL4b56vrJKvQ-36" style="edgeStyle=orthogonalEdgeStyle;rounded=0;orthogonalLoop=1;jettySize=auto;html=1;entryX=1;entryY=0.5;entryDx=0;entryDy=0;" edge="1" parent="77e6c97f196da883-4" source="MxT1PfqKiL4b56vrJKvQ-32" target="MxT1PfqKiL4b56vrJKvQ-35">
          <mxGeometry relative="1" as="geometry" />
        </mxCell>
        <mxCell id="MxT1PfqKiL4b56vrJKvQ-32" value="token&lt;div&gt;&lt;br&gt;&lt;/div&gt;" style="rhombus;whiteSpace=wrap;html=1;" vertex="1" parent="77e6c97f196da883-4">
          <mxGeometry x="370" y="150" width="80" height="80" as="geometry" />
        </mxCell>
        <mxCell id="MxT1PfqKiL4b56vrJKvQ-35" value="generate token 1 time" style="rounded=1;whiteSpace=wrap;html=1;" vertex="1" parent="77e6c97f196da883-4">
          <mxGeometry x="170" y="200" width="120" height="40" as="geometry" />
        </mxCell>
        <mxCell id="MxT1PfqKiL4b56vrJKvQ-6" value="" style="endArrow=classic;html=1;rounded=0;exitX=1;exitY=0.5;exitDx=0;exitDy=0;entryX=0;entryY=0.5;entryDx=0;entryDy=0;" edge="1" parent="77e6c97f196da883-1" source="77e6c97f196da883-8" target="MxT1PfqKiL4b56vrJKvQ-5">
          <mxGeometry width="50" height="50" relative="1" as="geometry">
            <mxPoint x="120" y="120" as="sourcePoint" />
            <mxPoint x="170" y="70" as="targetPoint" />
            <Array as="points">
              <mxPoint x="140" y="75" />
              <mxPoint x="170" y="75" />
              <mxPoint x="170" y="110" />
            </Array>
          </mxGeometry>
        </mxCell>
        <mxCell id="MxT1PfqKiL4b56vrJKvQ-18" style="edgeStyle=orthogonalEdgeStyle;rounded=0;orthogonalLoop=1;jettySize=auto;html=1;entryX=1;entryY=0.75;entryDx=0;entryDy=0;" edge="1" parent="77e6c97f196da883-1" source="MxT1PfqKiL4b56vrJKvQ-16" target="MxT1PfqKiL4b56vrJKvQ-12">
          <mxGeometry relative="1" as="geometry">
            <Array as="points">
              <mxPoint x="270" y="121" />
              <mxPoint x="270" y="140" />
              <mxPoint x="140" y="140" />
              <mxPoint x="140" y="123" />
            </Array>
          </mxGeometry>
        </mxCell>
        <mxCell id="MxT1PfqKiL4b56vrJKvQ-14" style="edgeStyle=orthogonalEdgeStyle;rounded=0;orthogonalLoop=1;jettySize=auto;html=1;entryX=0.538;entryY=0.106;entryDx=0;entryDy=0;entryPerimeter=0;" edge="1" parent="77e6c97f196da883-1" source="MxT1PfqKiL4b56vrJKvQ-7" target="MxT1PfqKiL4b56vrJKvQ-13">
          <mxGeometry relative="1" as="geometry">
            <Array as="points">
              <mxPoint x="820" y="75" />
              <mxPoint x="820" y="60" />
              <mxPoint x="545" y="60" />
            </Array>
          </mxGeometry>
        </mxCell>
        <mxCell id="MxT1PfqKiL4b56vrJKvQ-24" value="" style="endArrow=classic;startArrow=classic;html=1;rounded=0;entryX=1;entryY=0.5;entryDx=0;entryDy=0;exitX=0.451;exitY=1.117;exitDx=0;exitDy=0;exitPerimeter=0;" edge="1" parent="77e6c97f196da883-1" source="MxT1PfqKiL4b56vrJKvQ-7" target="MxT1PfqKiL4b56vrJKvQ-21">
          <mxGeometry width="50" height="50" relative="1" as="geometry">
            <mxPoint x="600" y="210" as="sourcePoint" />
            <mxPoint x="650" y="160" as="targetPoint" />
            <Array as="points">
              <mxPoint x="870" y="100" />
            </Array>
          </mxGeometry>
        </mxCell>
        <mxCell id="77e6c97f196da883-5" value="database" style="swimlane;html=1;startSize=20;" parent="77e6c97f196da883-1" vertex="1">
          <mxGeometry x="810" y="20" width="160" height="870" as="geometry" />
        </mxCell>
        <mxCell id="MxT1PfqKiL4b56vrJKvQ-7" value="token pre-auth" style="rounded=1;whiteSpace=wrap;html=1;" vertex="1" parent="77e6c97f196da883-5">
          <mxGeometry x="20" y="40" width="120" height="30" as="geometry" />
        </mxCell>
        <mxCell id="MxT1PfqKiL4b56vrJKvQ-38" value="token" style="rounded=1;whiteSpace=wrap;html=1;" vertex="1" parent="77e6c97f196da883-5">
          <mxGeometry x="20" y="280" width="120" height="42" as="geometry" />
        </mxCell>
        <mxCell id="MxT1PfqKiL4b56vrJKvQ-34" value="" style="endArrow=classic;startArrow=classic;html=1;rounded=0;exitX=1;exitY=0.5;exitDx=0;exitDy=0;entryX=1;entryY=0.5;entryDx=0;entryDy=0;" edge="1" parent="77e6c97f196da883-1" source="MxT1PfqKiL4b56vrJKvQ-32" target="MxT1PfqKiL4b56vrJKvQ-7">
          <mxGeometry width="50" height="50" relative="1" as="geometry">
            <mxPoint x="530" y="240" as="sourcePoint" />
            <mxPoint x="580" y="190" as="targetPoint" />
            <Array as="points">
              <mxPoint x="1070" y="210" />
              <mxPoint x="1070" y="75" />
            </Array>
          </mxGeometry>
        </mxCell>
        <mxCell id="MxT1PfqKiL4b56vrJKvQ-37" style="edgeStyle=orthogonalEdgeStyle;rounded=0;orthogonalLoop=1;jettySize=auto;html=1;entryX=0.576;entryY=0.004;entryDx=0;entryDy=0;entryPerimeter=0;" edge="1" parent="77e6c97f196da883-1" source="MxT1PfqKiL4b56vrJKvQ-35" target="MxT1PfqKiL4b56vrJKvQ-38">
          <mxGeometry relative="1" as="geometry">
            <mxPoint x="890" y="170" as="targetPoint" />
            <Array as="points">
              <mxPoint x="390" y="270" />
              <mxPoint x="897" y="270" />
              <mxPoint x="897" y="290" />
            </Array>
          </mxGeometry>
        </mxCell>
        <mxCell id="MxT1PfqKiL4b56vrJKvQ-39" style="edgeStyle=orthogonalEdgeStyle;rounded=0;orthogonalLoop=1;jettySize=auto;html=1;entryX=0.375;entryY=1;entryDx=0;entryDy=0;entryPerimeter=0;" edge="1" parent="77e6c97f196da883-1" source="MxT1PfqKiL4b56vrJKvQ-35" target="MxT1PfqKiL4b56vrJKvQ-29">
          <mxGeometry relative="1" as="geometry" />
        </mxCell>
      </root>
    </mxGraphModel>
  </diagram>
</mxfile>
